<svg width="44" height="17" viewBox="0 0 44 17" fill="none" xmlns="http://www.w3.org/2000/svg">
<path d="M41.6344 2.36562C40.125 0.856281 38.1282 0 36 0C31.6045 0 28 3.59737 28 8C28 12.4049 31.5961 16 36 16C40.3846 16 44 12.4191 44 8C44 5.87184 43.1437 3.87497 41.6344 2.36562ZM36 14.0938C32.6317 14.0938 29.9062 11.3755 29.9062 8C29.9062 6.68747 30.3187 5.44059 31.0781 4.40934L39.5907 12.9125C38.5593 13.6813 37.3125 14.0938 36 14.0938ZM40.9125 11.5906L32.4093 3.07812C33.4407 2.31875 34.6875 1.90625 36 1.90625C39.3684 1.90625 42.0938 4.62453 42.0938 8C42.0938 9.31247 41.6813 10.5593 40.9125 11.5906Z" fill="black"/>
<path d="M15.4961 2.19734C14.513 1.21423 13.1976 0.672852 11.792 0.672852C10.5818 0.672852 9.43865 1.07421 8.5167 1.81311C7.5815 1.07421 6.43696 0.672852 5.23859 0.672852C3.82639 0.672852 2.50757 1.21446 1.52449 2.19734C0.541377 3.18025 0 4.49583 0 5.90128C0 7.30694 0.541377 8.62231 1.52449 9.60519L8.06766 16.1484C8.18689 16.2678 8.34345 16.3275 8.5 16.3275C8.65615 16.3275 8.81227 16.268 8.93174 16.1492L15.4802 9.62066C16.4604 8.61843 17 7.30122 17 5.91147C17 4.50887 16.4676 3.19167 15.4961 2.19734ZM14.6112 8.75987L8.5006 14.8517L2.38916 8.74051C1.63721 7.98836 1.223 6.97998 1.223 5.90128C1.223 4.82258 1.63721 3.8142 2.38916 3.06205C3.14131 2.3101 4.15318 1.89589 5.23859 1.89589C6.3067 1.89589 7.32059 2.31192 8.09293 3.06693C8.33222 3.30114 8.71605 3.29909 8.95272 3.06205C9.70487 2.3101 10.7131 1.89589 11.792 1.89589C12.8709 1.89589 13.879 2.3101 14.6261 3.05713C15.3683 3.81642 15.777 4.83011 15.777 5.91147C15.777 6.97978 15.3612 7.99344 14.6112 8.75987Z" fill="black"/>
</svg>
