<svg width="436" height="338" viewBox="0 0 436 338" fill="none" xmlns="http://www.w3.org/2000/svg">
<g clip-path="url(#clip0)">
<path d="M193.671 76.8567C175.725 76.8706 157.904 73.8747 140.946 67.9932C118.212 60.1216 99.588 49.264 85.5913 35.7222C59.115 10.1063 37.4085 6.24581 23.8639 7.51697C9.20203 8.89362 0.667711 16.4125 0.583261 16.4883L0 15.8371C0.0861534 15.7596 8.79642 8.07011 23.7257 6.65139C32.4805 5.81997 41.6359 7.26859 50.9381 10.9584C62.5385 15.5597 74.4017 23.6798 86.1982 35.093C100.103 48.5458 118.619 59.3369 141.231 67.1663C182.743 81.5394 229.529 78.0595 269.592 57.6186C282.856 50.8502 295.967 46.2303 308.558 43.8873C324.435 40.9319 339.493 41.6179 353.316 45.9247C383.691 55.3885 404.439 54.8866 416.495 52.8001C429.503 50.5484 435.405 46.0422 435.463 45.9969L436 46.6874C435.756 46.8776 429.865 51.3735 416.644 53.662C404.492 55.7657 383.596 56.2752 353.056 46.7598C322.134 37.1266 290.816 47.771 269.988 58.3977C250.187 68.5547 228.564 74.6634 206.382 76.3676C202.13 76.6935 197.893 76.8566 193.671 76.8567Z" fill="#3F3D56"/>
<path d="M191.908 87.7113C196.796 87.7113 200.76 83.7424 200.76 78.8465C200.76 73.9506 196.796 69.9817 191.908 69.9817C187.019 69.9817 183.056 73.9506 183.056 78.8465C183.056 83.7424 187.019 87.7113 191.908 87.7113Z" fill="#9C69E2"/>
<path d="M329.047 52.2831C333.936 52.2831 337.899 48.3142 337.899 43.4183C337.899 38.5224 333.936 34.5535 329.047 34.5535C324.158 34.5535 320.195 38.5224 320.195 43.4183C320.195 48.3142 324.158 52.2831 329.047 52.2831Z" fill="#9C69E2"/>
<path d="M43.85 17.7296C48.7388 17.7296 52.7019 13.7607 52.7019 8.86481C52.7019 3.96891 48.7388 0 43.85 0C38.9612 0 34.998 3.96891 34.998 8.86481C34.998 13.7607 38.9612 17.7296 43.85 17.7296Z" fill="#9C69E2"/>
<path d="M255.387 211.906V297.558H268.834V219.447H322.625V297.558H336.073V126.254H322.625C318.169 126.254 311.329 149.496 311.329 172.851C311.329 190.454 313.382 205.541 316.301 211.906H255.387ZM322.625 211.906H322.495C322.538 211.81 322.582 211.709 322.625 211.609V211.906Z" fill="#3F3D56"/>
<path d="M305.22 83.8592H305.22C294.182 83.8592 285.233 93.8044 285.233 106.072V121.659H290.02L292.791 115.884L292.099 121.659H322.866L325.385 116.409L324.756 121.659H328.22V109.421C328.22 95.3035 317.922 83.8592 305.22 83.8592Z" fill="#2F2E41"/>
<path d="M282.32 185.694L270.048 190.917L227.404 225.635C225.836 227.565 224.875 229.917 224.643 232.394C224.336 236.388 211.451 257.281 216.053 260.046C220.654 262.811 237.221 271.106 238.142 265.576C239.062 260.046 243.971 236.388 243.971 236.388L285.081 199.52L282.32 185.694Z" fill="#2F2E41"/>
<path d="M234.153 260.968L228.937 276.329C228.937 276.329 234.46 282.167 231.699 287.083V303.981H227.403L226.176 295.071C226.176 295.071 221.284 303.868 218.813 303.981C213.633 304.217 203.376 306.062 203.069 303.297C202.762 300.532 210.837 297.836 210.837 297.836L219.427 274.179L223.108 259.739L234.153 260.968Z" fill="#2F2E41"/>
<path d="M314.226 181.7C314.226 181.7 316.987 208.737 309.01 213.653C301.034 218.569 265.753 234.238 265.753 234.238C265.753 234.238 280.785 248.371 277.717 251.75C274.65 255.13 260.844 264.347 259.003 262.504C257.162 260.66 236.607 238.539 239.062 231.473C241.516 224.406 275.57 201.363 275.57 201.363L279.558 186.923L280.785 175.248L293.671 166.952L314.226 181.7Z" fill="#2F2E41"/>
<path d="M300.171 118.751C307.234 118.751 312.96 113.016 312.96 105.943C312.96 98.8687 307.234 93.1343 300.171 93.1343C293.107 93.1343 287.381 98.8687 287.381 105.943C287.381 113.016 293.107 118.751 300.171 118.751Z" fill="#FFB9B9"/>
<path d="M310.084 111.189C310.084 111.189 309.471 122.864 318.981 126.55C328.492 130.237 295.358 154.202 295.358 154.202V127.472C295.358 127.472 299.653 122.864 295.358 115.797L310.084 111.189Z" fill="#FFB9B9"/>
<path d="M330.486 166.031L328.032 178.013L320.669 219.183C320.669 219.183 326.805 236.696 318.521 236.388C310.238 236.081 314.226 217.34 314.226 217.34L318.521 183.236V170.025L330.486 166.031Z" fill="#FFB9B9"/>
<path d="M277.718 160.193L274.956 170.946L262.378 201.363C262.378 201.363 253.788 215.803 260.844 215.496C267.9 215.189 267.9 201.363 267.9 201.363L282.319 176.784V162.958L277.718 160.193Z" fill="#FFB9B9"/>
<path d="M275.57 249.907L285.694 259.431C285.694 259.431 292.751 257.895 295.512 266.191C298.273 274.486 300.114 279.709 300.114 279.709L296.432 281.86L291.83 275.408C291.83 275.408 289.069 287.083 286.308 288.005C283.547 288.926 269.741 295.071 270.968 288.005L277.718 278.173C277.718 278.173 278.638 267.112 275.877 266.191C273.116 265.269 265.753 256.052 265.753 256.052L275.57 249.907Z" fill="#2F2E41"/>
<path d="M314.712 191.224C314.712 191.224 285.874 180.778 284.033 181.7C282.663 182.306 281.204 182.685 279.712 182.823L279.738 178.627C279.738 178.627 289.249 175.248 294.464 177.399C299.68 179.549 315.633 189.074 315.633 189.074L314.712 191.224Z" fill="#3F3D56"/>
<path d="M297.199 148.057C297.199 148.057 305.483 138.533 307.937 132.695C309.49 129.156 312.34 126.35 315.9 124.854C315.9 124.854 334.321 129.008 334.015 136.382C333.708 143.756 322.356 155.124 322.356 155.124C322.356 155.124 323.89 195.986 315.607 195.372C313.82 193.237 312.559 190.711 311.925 187.998C311.005 183.697 282.473 179.088 282.473 179.088C282.473 179.088 280.019 183.39 279.712 181.546C279.405 179.703 282.167 134.539 282.167 134.539L296.797 124.854L297.199 148.057Z" fill="#D0CDE1"/>
<path d="M331.651 133.414L331.856 133.53C332.512 133.898 333.058 134.435 333.437 135.085C333.817 135.734 334.017 136.474 334.017 137.227L334.014 160.028C334.017 160.648 334.153 161.259 334.416 161.821C334.678 162.382 335.058 162.88 335.532 163.279C336.714 164.286 337.809 165.737 335.548 166.492C331.866 167.72 317.447 173.865 317.14 171.715C316.834 169.564 316.22 167.106 317.14 167.106C317.861 167.106 322.154 145.074 325.604 135.655C325.814 135.078 326.148 134.554 326.58 134.119C327.013 133.684 327.535 133.348 328.11 133.135C328.685 132.922 329.3 132.837 329.911 132.885C330.522 132.933 331.116 133.114 331.651 133.414Z" fill="#D0CDE1"/>
<path d="M286.307 133.463L282.012 134.692L277.104 155.892C277.104 155.892 271.275 157.121 273.115 159.271C274.956 161.422 282.626 166.952 282.626 166.952L286.307 133.463Z" fill="#D0CDE1"/>
<path d="M310.903 89.9782C309.941 88.6848 308.695 87.6307 307.26 86.8977C305.826 86.1647 304.242 85.7725 302.632 85.7515H302.24C294.674 85.7515 288.541 92.6076 288.541 101.065V101.065H291.076L291.485 97.9442L292.086 101.065H307.121L308.381 98.4248L308.066 101.065H311.024C312.404 107.93 310.421 114.794 305.074 121.659H310.113L312.632 116.379L312.002 121.659H321.607L323.497 109.514C323.497 100.418 318.22 92.7052 310.903 89.9782Z" fill="#2F2E41"/>
<path d="M53.9538 231.696C57.1814 224.658 59.4512 207.977 59.4512 188.514C59.4512 162.691 51.8885 136.993 46.9615 136.993H32.0928V326.398H46.9615V240.034H106.436V326.398H121.305V231.696H53.9538ZM46.9614 231.368C47.0096 231.478 47.0575 231.59 47.1061 231.696H46.9614V231.368Z" fill="#3F3D56"/>
<path d="M115.928 197.142C115.928 197.142 133.835 204.578 128.157 208.952C122.479 213.325 110.687 203.703 111.124 202.391C111.561 201.079 109.377 198.017 109.377 198.017L115.928 197.142Z" fill="#9F616A"/>
<path d="M100.205 138.532L105.883 143.781L107.193 159.09L111.561 175.273C111.561 175.273 118.985 190.581 117.675 193.643C116.365 196.705 118.985 197.58 118.985 197.58L108.94 201.516C108.94 201.516 98.0215 189.269 98.0215 186.645C98.0215 184.021 100.205 138.532 100.205 138.532Z" fill="#575A88"/>
<path opacity="0.1" d="M100.205 138.532L105.883 143.781L107.193 159.09L111.561 175.273C111.561 175.273 118.985 190.581 117.675 193.643C116.365 196.705 118.985 197.58 118.985 197.58L108.94 201.516C108.94 201.516 98.0215 189.269 98.0215 186.645C98.0215 184.021 100.205 138.532 100.205 138.532Z" fill="black"/>
<path d="M153.925 295.991C153.925 295.991 151.742 306.051 151.305 306.926C150.868 307.801 159.603 310.862 159.603 310.862L170.085 303.427C170.085 303.427 165.718 293.804 165.718 292.055L153.925 295.991Z" fill="#575A88"/>
<path d="M96.7109 198.017L99.7681 201.516C99.7681 201.516 163.097 209.389 164.407 221.636C165.717 233.883 174.889 291.617 169.648 293.367C164.407 295.117 150.868 301.677 150.868 298.178C150.868 294.679 142.133 246.567 143.88 237.819C143.88 237.819 68.3221 228.197 66.5751 217.262C64.8281 206.327 68.3221 201.516 68.3221 201.516L96.7109 198.017Z" fill="#2F2E41"/>
<path opacity="0.1" d="M96.7109 198.017L99.7681 201.516C99.7681 201.516 163.097 209.389 164.407 221.636C165.717 233.883 174.889 291.617 169.648 293.367C164.407 295.117 150.868 301.677 150.868 298.178C150.868 294.679 142.133 246.567 143.88 237.819C143.88 237.819 68.3221 228.197 66.5751 217.262C64.8281 206.327 68.3221 201.516 68.3221 201.516L96.7109 198.017Z" fill="black"/>
<path d="M153.052 306.051C153.052 306.051 151.305 302.115 150.432 303.427C149.558 304.739 146.501 320.048 149.558 320.048C152.615 320.048 180.567 327.046 184.498 326.171C188.429 325.296 195.854 326.608 194.98 322.234C194.107 317.861 189.739 317.423 189.739 317.423C189.739 317.423 173.579 307.801 172.706 302.989C171.832 298.178 167.028 300.803 167.028 300.803V303.864C167.028 303.864 157.856 310.862 153.052 306.051Z" fill="#2F2E41"/>
<path d="M70.0692 105.291C70.0692 105.291 73.1265 120.162 66.5752 121.474C60.024 122.787 74.8735 131.534 74.8735 131.534L84.482 136.783L91.47 129.785C91.47 129.785 85.1371 116.882 89.9414 107.259C94.7456 97.6369 70.0692 105.291 70.0692 105.291Z" fill="#9F616A"/>
<path d="M91.47 129.785L84.482 136.783L74.8735 131.534C74.8735 131.534 60.024 122.787 66.5752 121.474C70.7898 120.63 71.0257 114.174 70.6632 109.678C70.5449 108.206 70.3466 106.742 70.0692 105.291C70.0692 105.291 94.7456 97.6369 89.9414 107.259C89.2114 108.745 88.7051 110.331 88.439 111.966C86.9671 120.613 91.47 129.785 91.47 129.785Z" fill="#9F616A"/>
<path d="M115.928 308.675V318.735H132.524L133.834 314.799L132.087 304.302L115.928 308.675Z" fill="#575A88"/>
<path d="M47.3584 206.765C47.3584 206.765 47.3584 232.57 57.8404 233.445C68.3224 234.32 105.883 239.131 105.883 239.131C105.883 239.131 108.067 281.995 111.997 295.991C115.928 309.988 112.434 310.862 115.928 311.737C119.422 312.612 134.272 309.55 133.835 306.489C133.398 303.427 131.651 226.01 131.651 226.01C131.651 226.01 135.582 209.389 83.1719 201.516L47.3584 206.765Z" fill="#2F2E41"/>
<path d="M117.238 315.674C117.238 315.674 114.618 309.988 114.181 311.737C113.744 313.487 108.503 328.795 113.744 330.107C118.985 331.42 135.582 338.418 146.5 337.98C157.419 337.543 158.729 337.106 158.729 337.106C158.729 337.106 161.787 332.732 157.856 330.107C153.925 327.483 137.765 312.175 136.892 310.425C136.018 308.675 129.467 307.363 129.467 310.425C129.467 313.487 120.295 319.61 117.238 315.674Z" fill="#2F2E41"/>
<path opacity="0.1" d="M89.9415 107.259C89.2115 108.745 88.7052 110.331 88.4391 111.966C86.2641 113.282 84.8097 112.945 82.08 112.945C78.0313 112.945 76.3978 107.762 73.7817 105.072C73.5764 102.575 70.0693 105.291 70.0693 105.291C70.0693 105.291 94.7457 97.6369 89.9415 107.259Z" fill="black"/>
<path d="M80.988 112.727C88.9479 112.727 95.4007 106.264 95.4007 98.293C95.4007 90.3214 88.9479 83.8592 80.988 83.8592C73.028 83.8592 66.5752 90.3214 66.5752 98.293C66.5752 106.264 73.028 112.727 80.988 112.727Z" fill="#9F616A"/>
<path d="M105.883 143.781C105.883 143.781 103.699 159.527 102.389 165.213C101.078 170.899 99.3314 197.142 98.4579 200.641C97.5844 204.14 92.3434 205.015 81.8614 203.703C81.2034 203.62 80.5416 203.57 79.8786 203.554C73.4234 203.349 66.038 205.767 59.2028 207.666C55.2721 208.759 51.5204 209.678 48.2316 209.826C43.2527 210.054 41.7939 204.525 41.9643 198.542C42.1259 192.974 43.7025 187.004 45.1744 184.895C47.8255 181.099 45.2181 147.013 46.1964 135.773V135.768C46.3449 134.054 46.5763 132.873 46.9214 132.409C49.5419 128.91 66.5751 120.162 68.4837 120.517C70.388 120.871 86.6657 131.097 86.6657 131.097C90.5964 131.097 90.4697 126.828 90.4697 126.828C90.4697 126.828 93.2169 131.972 98.4579 133.284C103.699 134.596 105.883 143.781 105.883 143.781Z" fill="#575A88"/>
<path d="M76.6869 200.485C76.6869 200.485 104.821 201.382 99.8922 204.729C94.9637 208.077 73.1262 211.139 72.6894 206.765C72.2527 202.391 76.6869 200.485 76.6869 200.485Z" fill="#9F616A"/>
<path opacity="0.1" d="M79.8791 203.554C79.9708 205.234 75.4593 209.017 74.0005 211.576C73.1925 212.993 66.9383 211.125 59.2034 207.666C53.2678 204.998 47.5097 201.95 41.9648 198.542C42.1264 192.974 43.7031 187.004 45.175 184.895C47.8261 181.099 45.2186 147.013 46.197 135.773V135.768C46.4302 135.65 46.6727 135.55 46.922 135.471H52.163C70.0697 143.781 49.5425 179.647 49.5425 179.647C49.5425 179.647 76.621 201.953 79.2415 202.828C79.4133 202.861 79.5694 202.95 79.6849 203.081C79.8004 203.213 79.8688 203.379 79.8791 203.554Z" fill="black"/>
<path d="M52.1621 132.846H46.9211C46.9211 132.846 42.1168 134.159 38.1861 142.906C34.2553 151.654 19.8426 178.772 32.5083 189.269C45.1741 199.766 72.2526 212.013 73.9996 208.952C75.7466 205.89 81.8611 201.079 79.2406 200.204C76.6201 199.329 49.5416 177.022 49.5416 177.022C49.5416 177.022 70.0688 141.157 52.1621 132.846Z" fill="#575A88"/>
<path d="M78.771 91.5766C78.771 91.5766 79.4035 82.8081 87.2063 86.3834C95.0091 89.9587 94.5 80.104 92.142 78.3626C89.784 76.6211 89.8587 76.1902 81.2346 77.3553C72.6106 78.5205 55.8674 80.4945 61.2812 97.8602C66.695 115.226 71.5982 110.758 71.5982 110.758C71.5982 110.758 67.2949 95.1317 71.6551 98.1088L76.0154 101.086L78.3163 100.598L78.771 91.5766Z" fill="#2F2E41"/>
<path d="M400.734 217.838C400.734 209.944 342.153 203.544 269.889 203.544C197.626 203.544 139.045 209.944 139.045 217.838C139.045 220.898 147.849 223.733 162.835 226.058V323.857H169.972V227.066C193.973 230.165 229.825 232.133 269.889 232.133C310.285 232.133 346.4 230.133 370.402 226.99V323.857H377.539V225.964C392.16 223.657 400.734 220.857 400.734 217.838Z" fill="#3F3D56"/>
<path d="M286.281 218.137C300.995 218.137 312.923 215.199 312.923 211.576C312.923 207.952 300.995 205.015 286.281 205.015C271.568 205.015 259.64 207.952 259.64 211.576C259.64 215.199 271.568 218.137 286.281 218.137Z" fill="#F2F2F2"/>
<path d="M286.281 216.954C298.341 216.954 308.118 214.546 308.118 211.576C308.118 208.606 298.341 206.198 286.281 206.198C274.22 206.198 264.443 208.606 264.443 211.576C264.443 214.546 274.22 216.954 286.281 216.954Z" fill="#D0CDE1"/>
<path d="M187.139 223.385C201.853 223.385 213.781 220.448 213.781 216.825C213.781 213.201 201.853 210.264 187.139 210.264C172.425 210.264 160.497 213.201 160.497 216.825C160.497 220.448 172.425 223.385 187.139 223.385Z" fill="#F2F2F2"/>
<path d="M187.139 222.202C199.2 222.202 208.977 219.795 208.977 216.825C208.977 213.854 199.2 211.447 187.139 211.447C175.079 211.447 165.302 213.854 165.302 216.825C165.302 219.795 175.079 222.202 187.139 222.202Z" fill="#D0CDE1"/>
<path d="M285.661 211.113C292.675 211.113 298.362 210.213 298.362 209.104C298.362 207.995 292.675 207.096 285.661 207.096C278.646 207.096 272.96 207.995 272.96 209.104C272.96 210.213 278.646 211.113 285.661 211.113Z" fill="#9F616A"/>
<path d="M278.893 208.351C281.108 208.351 282.903 207.377 282.903 206.176C282.903 204.974 281.108 204 278.893 204C276.678 204 274.882 204.974 274.882 206.176C274.882 207.377 276.678 208.351 278.893 208.351Z" fill="#9C69E2"/>
<path d="M277.39 208.351C279.605 208.351 281.401 207.377 281.401 206.176C281.401 204.974 279.605 204 277.39 204C275.175 204 273.379 204.974 273.379 206.176C273.379 207.377 275.175 208.351 277.39 208.351Z" fill="#9C69E2"/>
<path d="M294.937 208.853C297.152 208.853 298.947 207.879 298.947 206.678C298.947 205.476 297.152 204.502 294.937 204.502C292.721 204.502 290.926 205.476 290.926 206.678C290.926 207.879 292.721 208.853 294.937 208.853Z" fill="#9C69E2"/>
<path d="M285.745 208.351C287.96 208.351 289.756 207.377 289.756 206.176C289.756 204.974 287.96 204 285.745 204C283.53 204 281.734 204.974 281.734 206.176C281.734 207.377 283.53 208.351 285.745 208.351Z" fill="#9C69E2"/>
<path d="M292.597 208.351C294.812 208.351 296.608 207.377 296.608 206.176C296.608 204.974 294.812 204 292.597 204C290.382 204 288.586 204.974 288.586 206.176C288.586 207.377 290.382 208.351 292.597 208.351Z" fill="#9C69E2"/>
<path d="M297.778 204.837C290.529 207.3 282.396 207.3 273.379 204.837V204.498C273.377 201.937 274.359 199.473 276.121 197.616C277.882 195.76 280.289 194.652 282.843 194.523C284.993 194.415 287.146 194.418 289.296 194.532C291.594 194.666 293.753 195.676 295.33 197.354C296.908 199.033 297.784 201.253 297.778 203.558V204.837Z" fill="#3F3D56"/>
<path d="M294.219 214.059C288.862 214.601 283.464 214.601 278.107 214.059C276.836 213.935 275.657 213.341 274.799 212.395C273.94 211.448 273.464 210.216 273.462 208.937H298.864C298.862 210.216 298.385 211.448 297.527 212.395C296.668 213.341 295.489 213.935 294.219 214.059Z" fill="#3F3D56"/>
<path d="M282.235 197.64C281.653 197.883 281.028 198.008 280.397 198.008C279.766 198.008 279.141 197.883 278.559 197.64C279.141 197.397 279.766 197.272 280.397 197.272C281.028 197.272 281.653 197.397 282.235 197.64Z" fill="#D0CDE1"/>
<path d="M285.912 199.146C285.329 199.389 284.705 199.515 284.074 199.515C283.443 199.515 282.818 199.389 282.235 199.146C282.818 198.903 283.443 198.778 284.074 198.778C284.705 198.778 285.329 198.903 285.912 199.146Z" fill="#D0CDE1"/>
<path d="M286.247 196.469C285.664 196.712 285.04 196.837 284.409 196.837C283.778 196.837 283.153 196.712 282.57 196.469C283.153 196.226 283.778 196.1 284.409 196.1C285.04 196.1 285.664 196.226 286.247 196.469Z" fill="#D0CDE1"/>
<path d="M293.098 196.469C292.516 196.712 291.891 196.837 291.26 196.837C290.629 196.837 290.004 196.712 289.422 196.469C290.004 196.226 290.629 196.1 291.26 196.1C291.891 196.1 292.516 196.226 293.098 196.469Z" fill="#D0CDE1"/>
<path d="M291.26 197.975C290.677 198.218 290.052 198.343 289.421 198.343C288.79 198.343 288.165 198.218 287.583 197.975C288.165 197.732 288.79 197.607 289.421 197.607C290.052 197.607 290.677 197.732 291.26 197.975Z" fill="#D0CDE1"/>
<path d="M186.956 216.361C193.97 216.361 199.657 215.462 199.657 214.353C199.657 213.244 193.97 212.345 186.956 212.345C179.941 212.345 174.255 213.244 174.255 214.353C174.255 215.462 179.941 216.361 186.956 216.361Z" fill="#9F616A"/>
<path d="M180.188 213.6C182.403 213.6 184.198 212.626 184.198 211.424C184.198 210.223 182.403 209.248 180.188 209.248C177.972 209.248 176.177 210.223 176.177 211.424C176.177 212.626 177.972 213.6 180.188 213.6Z" fill="#9C69E2"/>
<path d="M178.684 213.6C180.899 213.6 182.694 212.626 182.694 211.424C182.694 210.223 180.899 209.248 178.684 209.248C176.469 209.248 174.673 210.223 174.673 211.424C174.673 212.626 176.469 213.6 178.684 213.6Z" fill="#9C69E2"/>
<path d="M196.232 214.102C198.447 214.102 200.242 213.128 200.242 211.926C200.242 210.725 198.447 209.751 196.232 209.751C194.016 209.751 192.221 210.725 192.221 211.926C192.221 213.128 194.016 214.102 196.232 214.102Z" fill="#9C69E2"/>
<path d="M187.04 213.6C189.255 213.6 191.051 212.626 191.051 211.424C191.051 210.223 189.255 209.248 187.04 209.248C184.825 209.248 183.029 210.223 183.029 211.424C183.029 212.626 184.825 213.6 187.04 213.6Z" fill="#9C69E2"/>
<path d="M193.892 213.6C196.107 213.6 197.902 212.626 197.902 211.424C197.902 210.223 196.107 209.248 193.892 209.248C191.677 209.248 189.881 210.223 189.881 211.424C189.881 212.626 191.677 213.6 193.892 213.6Z" fill="#9C69E2"/>
<path d="M199.072 210.085C191.823 212.549 183.69 212.549 174.673 210.085V209.746C174.671 207.185 175.653 204.722 177.415 202.865C179.176 201.008 181.583 199.901 184.137 199.772C186.287 199.664 188.44 199.666 190.59 199.78C192.888 199.914 195.047 200.924 196.624 202.603C198.202 204.282 199.078 206.501 199.072 208.806V210.085Z" fill="#3F3D56"/>
<path d="M195.514 219.308C190.157 219.85 184.759 219.85 179.402 219.308C178.131 219.183 176.952 218.59 176.094 217.643C175.235 216.697 174.759 215.464 174.757 214.186H200.159C200.157 215.464 199.68 216.697 198.822 217.643C197.963 218.59 196.784 219.183 195.514 219.308Z" fill="#3F3D56"/>
<path d="M183.53 202.889C182.948 203.132 182.323 203.257 181.692 203.257C181.061 203.257 180.436 203.132 179.854 202.889C180.436 202.646 181.061 202.521 181.692 202.521C182.323 202.521 182.948 202.646 183.53 202.889Z" fill="#D0CDE1"/>
<path d="M187.207 204.395C186.624 204.638 186 204.763 185.369 204.763C184.738 204.763 184.113 204.638 183.53 204.395C184.113 204.152 184.738 204.027 185.369 204.027C186 204.027 186.624 204.152 187.207 204.395Z" fill="#D0CDE1"/>
<path d="M187.541 201.717C186.958 201.96 186.334 202.085 185.703 202.085C185.072 202.085 184.447 201.96 183.864 201.717C184.447 201.474 185.072 201.349 185.703 201.349C186.334 201.349 186.958 201.474 187.541 201.717Z" fill="#D0CDE1"/>
<path d="M194.392 201.717C193.81 201.96 193.185 202.085 192.554 202.085C191.923 202.085 191.298 201.96 190.716 201.717C191.298 201.474 191.923 201.349 192.554 201.349C193.185 201.349 193.81 201.474 194.392 201.717Z" fill="#D0CDE1"/>
<path d="M192.555 203.224C191.972 203.467 191.347 203.592 190.716 203.592C190.085 203.592 189.46 203.467 188.878 203.224C189.46 202.98 190.085 202.855 190.716 202.855C191.347 202.855 191.972 202.98 192.555 203.224Z" fill="#D0CDE1"/>
<path d="M309.2 209.798L309.262 211.153L309.34 212.91C309.34 212.91 301.281 213.366 299.658 215.084C299.62 215.121 299.586 215.161 299.554 215.203L296.326 214.496L296.318 212.903C296.318 212.903 296.363 212.879 296.449 212.832C296.469 212.822 296.494 212.808 296.519 212.795C300.469 210.858 304.803 209.834 309.2 209.798Z" fill="#9C69E2"/>
<path opacity="0.1" d="M309.201 209.798L309.263 211.153C305.689 211.264 298.926 213.397 298.926 213.397L296.45 212.832C300.417 210.869 304.777 209.832 309.201 209.798Z" fill="black"/>
<path opacity="0.1" d="M296.519 212.795L298.925 213.397L299.658 215.084C299.62 215.121 299.586 215.161 299.554 215.203L296.326 214.496L296.318 212.903C296.318 212.903 296.363 212.879 296.449 212.832C296.469 212.822 296.494 212.808 296.519 212.795Z" fill="white"/>
<path d="M211.806 215.484L211.867 216.839L211.946 218.596C211.946 218.596 203.887 219.052 202.263 220.77C202.226 220.807 202.191 220.847 202.16 220.89L198.932 220.182L198.924 218.589C198.924 218.589 198.968 218.565 199.055 218.518C199.075 218.508 199.099 218.494 199.124 218.481C203.074 216.544 207.408 215.52 211.806 215.484Z" fill="#9C69E2"/>
<path opacity="0.1" d="M211.806 215.484L211.867 216.839C208.294 216.95 201.53 219.083 201.53 219.083L199.055 218.518C203.022 216.555 207.381 215.518 211.806 215.484Z" fill="black"/>
<path opacity="0.1" d="M199.124 218.481L201.531 219.083L202.263 220.77C202.226 220.807 202.191 220.847 202.16 220.89L198.932 220.182L198.924 218.589C198.924 218.589 198.968 218.565 199.055 218.518C199.075 218.508 199.099 218.494 199.124 218.481Z" fill="white"/>
<path d="M357.736 169.217C357.049 168.53 356.242 167.972 355.357 167.571V150.576C355.357 150.377 355.278 150.186 355.137 150.045C354.996 149.904 354.805 149.825 354.607 149.825H350.405C350.206 149.825 350.016 149.904 349.875 150.045C349.734 150.186 349.655 150.377 349.655 150.576V167.245C348.136 167.75 346.815 168.72 345.878 170.019C344.941 171.318 344.437 172.88 344.437 174.482V210.939C344.437 211.378 344.523 211.812 344.69 212.218C344.858 212.623 345.104 212.991 345.414 213.301C345.723 213.612 346.091 213.858 346.496 214.026C346.901 214.194 347.334 214.28 347.773 214.28H356.772C357.652 214.28 358.497 213.93 359.12 213.306C359.742 212.682 360.092 211.837 360.092 210.955V174.912C360.093 173.854 359.886 172.806 359.482 171.829C359.077 170.852 358.484 169.964 357.736 169.217Z" fill="#3F3D56"/>
<path d="M360.092 179.826H344.437V200.537H360.092V179.826Z" fill="#9C69E2"/>
<path d="M355.696 150.986H355.357V150.576C355.357 150.377 355.278 150.186 355.138 150.045C354.997 149.904 354.806 149.825 354.607 149.825H350.406C350.207 149.825 350.016 149.904 349.875 150.045C349.735 150.186 349.656 150.377 349.656 150.576V150.986H349.317V152.728H349.656V161.632H355.357V152.728H355.696V150.986Z" fill="#9C69E2"/>
<path d="M232.384 183.969C231.97 183.083 231.643 182.457 231.529 182.241C224.501 183.978 219.813 182.51 219.073 182.251C218.712 182.935 216.454 187.306 215.542 191.496C214.718 195.276 215.196 197.811 216.964 199.028L217.016 199.066L217.028 199.073C218.979 200.361 220.84 201.501 222.56 202.463C222.791 202.592 223.01 202.712 223.215 202.822L223.237 202.834L223.252 202.854C223.488 203.152 223.708 203.462 223.91 203.784C224.29 204.316 224.521 204.94 224.578 205.592V224.366L224.459 224.369C219.977 224.46 217.202 225.221 217.202 225.874C217.202 226.589 220.529 227.387 225.303 227.387C230.077 227.387 233.404 226.589 233.404 225.874C233.404 225.231 230.677 224.474 226.27 224.372L226.151 224.369L226.262 207.003C226.265 205.827 226.538 204.668 227.06 203.614C227.149 203.437 227.244 203.265 227.344 203.103C227.424 202.972 227.509 202.845 227.596 202.725L227.612 202.703L227.636 202.69C227.857 202.569 228.091 202.438 228.339 202.297L228.368 202.281C229.995 201.361 231.748 200.282 233.58 199.073C235.214 197.994 235.784 195.812 235.271 192.589C234.783 189.516 233.432 186.205 232.384 183.969Z" fill="#D0CDE1"/>
<path d="M232.804 198.68C230.884 199.947 229.299 200.897 228.087 201.582H228.086C226.318 201.461 224.542 201.511 222.783 201.731C221.541 201.036 219.864 200.04 217.802 198.68C217.783 198.666 217.763 198.653 217.743 198.639V198.638C215.852 197.335 215.805 194.575 216.42 191.753C217.986 191.579 220.482 191.655 223.836 192.855C227.807 194.276 231.964 193.472 234.373 192.742C234.768 195.232 234.527 197.542 232.804 198.68Z" fill="#9C69E2"/>
<path d="M221.389 190.732C221.689 190.732 221.933 190.488 221.933 190.188C221.933 189.887 221.689 189.644 221.389 189.644C221.089 189.644 220.846 189.887 220.846 190.188C220.846 190.488 221.089 190.732 221.389 190.732Z" fill="#9C69E2"/>
<path d="M219.868 195.74C220.168 195.74 220.411 195.496 220.411 195.196C220.411 194.895 220.168 194.651 219.868 194.651C219.568 194.651 219.324 194.895 219.324 195.196C219.324 195.496 219.568 195.74 219.868 195.74Z" fill="white"/>
<path d="M222.694 191.821C222.874 191.821 223.02 191.675 223.02 191.494C223.02 191.314 222.874 191.168 222.694 191.168C222.514 191.168 222.368 191.314 222.368 191.494C222.368 191.675 222.514 191.821 222.694 191.821Z" fill="#9C69E2"/>
<path d="M223.998 198.026C224.178 198.026 224.324 197.88 224.324 197.7C224.324 197.519 224.178 197.373 223.998 197.373C223.818 197.373 223.672 197.519 223.672 197.7C223.672 197.88 223.818 198.026 223.998 198.026Z" fill="white"/>
<path d="M221.716 198.353C221.896 198.353 222.042 198.207 222.042 198.026C222.042 197.846 221.896 197.7 221.716 197.7C221.536 197.7 221.39 197.846 221.39 198.026C221.39 198.207 221.536 198.353 221.716 198.353Z" fill="white"/>
<path d="M228.347 187.466C228.527 187.466 228.673 187.32 228.673 187.14C228.673 186.959 228.527 186.813 228.347 186.813C228.167 186.813 228.021 186.959 228.021 187.14C228.021 187.32 228.167 187.466 228.347 187.466Z" fill="#9C69E2"/>
<path d="M257.881 166.27C257.466 165.384 257.139 164.758 257.025 164.542C249.997 166.279 245.309 164.811 244.569 164.552C244.208 165.236 241.95 169.607 241.038 173.797C240.214 177.577 240.692 180.111 242.46 181.329L242.512 181.367L242.524 181.374C244.475 182.662 246.336 183.802 248.056 184.763C248.287 184.893 248.506 185.012 248.711 185.123L248.733 185.135L248.748 185.155C248.984 185.453 249.204 185.763 249.406 186.085C249.786 186.617 250.017 187.241 250.074 187.893V206.667L249.956 206.669C245.473 206.761 242.698 207.522 242.698 208.174C242.698 208.89 246.025 209.688 250.799 209.688C255.573 209.688 258.9 208.89 258.9 208.174C258.9 207.532 256.173 206.775 251.766 206.673L251.647 206.67L251.758 189.304C251.761 188.128 252.034 186.968 252.556 185.915C252.645 185.738 252.741 185.566 252.84 185.404C252.92 185.273 253.005 185.146 253.092 185.026L253.108 185.004L253.132 184.99C253.353 184.87 253.587 184.739 253.835 184.598L253.864 184.582C255.491 183.662 257.245 182.583 259.076 181.374C260.711 180.295 261.28 178.113 260.768 174.89C260.28 171.817 258.928 168.506 257.881 166.27Z" fill="#D0CDE1"/>
<path d="M258.3 180.98C256.38 182.248 254.795 183.198 253.583 183.883H253.582C251.814 183.762 250.038 183.812 248.279 184.032C247.037 183.337 245.36 182.341 243.298 180.98C243.279 180.967 243.259 180.954 243.24 180.94V180.939C241.348 179.636 241.301 176.876 241.917 174.054C243.482 173.88 245.978 173.956 249.332 175.156C253.303 176.577 257.46 175.773 259.869 175.043C260.265 177.533 260.023 179.843 258.3 180.98Z" fill="#9C69E2"/>
<path d="M246.886 173.033C247.186 173.033 247.43 172.789 247.43 172.489C247.43 172.188 247.186 171.944 246.886 171.944C246.586 171.944 246.343 172.188 246.343 172.489C246.343 172.789 246.586 173.033 246.886 173.033Z" fill="#9C69E2"/>
<path d="M245.364 178.041C245.664 178.041 245.907 177.797 245.907 177.497C245.907 177.196 245.664 176.952 245.364 176.952C245.064 176.952 244.82 177.196 244.82 177.497C244.82 177.797 245.064 178.041 245.364 178.041Z" fill="white"/>
<path d="M248.19 174.122C248.371 174.122 248.517 173.975 248.517 173.795C248.517 173.615 248.371 173.469 248.19 173.469C248.01 173.469 247.864 173.615 247.864 173.795C247.864 173.975 248.01 174.122 248.19 174.122Z" fill="#9C69E2"/>
<path d="M249.495 180.327C249.675 180.327 249.821 180.181 249.821 180.001C249.821 179.82 249.675 179.674 249.495 179.674C249.315 179.674 249.169 179.82 249.169 180.001C249.169 180.181 249.315 180.327 249.495 180.327Z" fill="white"/>
<path d="M247.212 180.654C247.392 180.654 247.538 180.508 247.538 180.327C247.538 180.147 247.392 180.001 247.212 180.001C247.032 180.001 246.886 180.147 246.886 180.327C246.886 180.508 247.032 180.654 247.212 180.654Z" fill="white"/>
<path d="M253.844 169.767C254.024 169.767 254.17 169.621 254.17 169.44C254.17 169.26 254.024 169.114 253.844 169.114C253.664 169.114 253.518 169.26 253.518 169.44C253.518 169.621 253.664 169.767 253.844 169.767Z" fill="#9C69E2"/>
</g>
<defs>
<clipPath id="clip0">
<rect width="436" height="338" fill="white"/>
</clipPath>
</defs>
</svg>
